<?xml version="1.0" encoding="UTF-8"?>
<svg height="128px" viewBox="0 0 128 128" width="128px" xmlns="http://www.w3.org/2000/svg">
    <linearGradient id="a" gradientTransform="matrix(1.624995 0 0 1.624954 11.99999 12.000017)" gradientUnits="userSpaceOnUse" x1="7.62141" x2="61.247601" y1="64.7192" y2="39.8564">
        <stop offset="0.22" stop-color="#f0eb18"/>
        <stop offset="0.59" stop-color="#00c4f4"/>
    </linearGradient>
    <linearGradient id="b" gradientTransform="matrix(1.624995 0 0 1.624954 11.99999 12.000017)" gradientUnits="userSpaceOnUse" x1="60.0186" x2="1.31316" y1="59.777699" y2="1.07287">
        <stop offset="0.19" stop-color="#00c4f4"/>
        <stop offset="0.83" stop-color="#007dfe"/>
    </linearGradient>
    <path d="m 21.453125 90.082031 l 0.003906 19.296875 c 0 3.652344 2.964844 6.617188 6.621094 6.617188 h 18.695313 c 1.933593 0 3.769531 -0.84375 5.027343 -2.3125 l 53.152344 -62.007813 c 1.027344 -1.203125 1.59375 -2.730469 1.59375 -4.308593 v -19.296876 c 0 -3.65625 -2.964844 -6.617187 -6.617187 -6.617187 h -18.703126 c -1.929687 0 -3.765624 0.84375 -5.023437 2.308594 l -53.15625 62.011719 c -1.027344 1.199218 -1.589844 2.726562 -1.589844 4.308593 z m 0 0" fill="#f0eb18"/>
    <path d="m 21.453125 92.40625 v 16.976562 c 0 3.652344 2.964844 6.617188 6.621094 6.617188 h 21.273437 c 0.3125 0 0.625 -0.023438 0.9375 -0.066406 l 60.03125 -8.574219 c 3.261719 -0.464844 5.683594 -3.257813 5.683594 -6.550781 v -25.46875 c 0 -3.65625 -2.964844 -6.621094 -6.621094 -6.617188 l -30.125 0.007813 c -0.710937 0 -1.417968 0.113281 -2.089844 0.339843 l -51.183593 17.058594 c -2.703125 0.902344 -4.527344 3.429688 -4.527344 6.28125 z m 0 0" fill="url(#a)"/>
    <path d="m 12 18.617188 v 55.199218 c 0 2.644532 1.578125 5.039063 4.011719 6.082032 l 60.921875 26.109374 c 0.824218 0.351563 1.710937 0.535157 2.605468 0.535157 h 29.84375 c 3.652344 0 6.617188 -2.964844 6.617188 -6.617188 v -29.195312 c 0 -1.308594 -0.386719 -2.585938 -1.113281 -3.671875 l -34.78125 -52.113282 c -1.226563 -1.839843 -3.292969 -2.941406 -5.503907 -2.941406 l -55.984374 -0.003906 c -3.652344 0 -6.617188 2.964844 -6.617188 6.617188 z m 0 0" fill="url(#b)"/>
    <path d="m 96.5 31.5 h -65 v 64.996094 h 65 z m 0 0"/>
    <g fill="#ffffff">
        <path d="m 46.511719 57.433594 l -3.9375 -17.796875 h -4.925781 l 5.886718 24.382812 h 5.398438 l 4.160156 -17.710937 l 4.113281 17.710937 h 5.414063 l 5.921875 -24.382812 h -4.824219 l -3.8125 17.796875 l -4.390625 -17.796875 h -4.808594 z m 0 0"/>
        <path d="m 74.109375 63.480469 c 1.371094 0.636719 2.9375 0.957031 4.703125 0.957031 s 3.335938 -0.324219 4.703125 -0.976562 c 1.371094 -0.652344 2.433594 -1.542969 3.1875 -2.683594 c 0.765625 -1.148438 1.148437 -2.445313 1.148437 -3.882813 c 0 -1.171875 -0.257812 -2.253906 -0.78125 -3.238281 c -0.523437 -1 -1.253906 -1.835938 -2.195312 -2.507812 c -0.929688 -0.6875 -1.992188 -1.148438 -3.1875 -1.394532 l -4.144531 -0.90625 c -0.753907 -0.183594 -1.351563 -0.496094 -1.792969 -0.9375 c -0.429688 -0.445312 -0.644531 -1 -0.644531 -1.671875 c 0 -0.59375 0.15625 -1.109375 0.46875 -1.550781 c 0.3125 -0.453125 0.75 -0.800781 1.304687 -1.046875 c 0.570313 -0.253906 1.226563 -0.382813 1.96875 -0.382813 c 0.742188 0 1.398438 0.132813 1.96875 0.402344 c 0.578125 0.253906 1.027344 0.621094 1.339844 1.097656 c 0.3125 0.460938 0.46875 0.992188 0.46875 1.582032 h 4.757812 c -0.011718 -1.390625 -0.386718 -2.621094 -1.117187 -3.691406 c -0.71875 -1.078126 -1.730469 -1.921876 -3.03125 -2.523438 c -1.300781 -0.605469 -2.800781 -0.90625 -4.441406 -0.90625 c -1.636719 0 -3.097657 0.3125 -4.386719 0.941406 c -1.289062 0.613282 -2.292969 1.476563 -3.011719 2.59375 c -0.71875 1.101563 -1.082031 2.351563 -1.082031 3.742188 c 0 1.148437 0.238281 2.183594 0.714844 3.101562 c 0.476562 0.917969 1.144531 1.6875 2.003906 2.316406 c 0.859375 0.617188 1.871094 1.050782 3.03125 1.304688 l 4.300781 0.960938 c 0.824219 0.199218 1.46875 0.550781 1.933594 1.0625 c 0.476563 0.511718 0.714844 1.15625 0.714844 1.933593 c 0 0.625 -0.175781 1.183594 -0.523438 1.671875 c -0.335937 0.484375 -0.820312 0.867188 -1.445312 1.148438 c -0.617188 0.265625 -1.300781 0.398437 -2.160157 0.398437 c -0.859374 0 -1.621093 -0.148437 -2.28125 -0.453125 c -0.660156 -0.300781 -1.179687 -0.71875 -1.550781 -1.253906 c -0.371093 -0.53125 -0.554687 -1.152344 -0.554687 -1.863281 h -4.773438 c 0.023438 1.5 0.417969 2.824219 1.183594 3.972656 c 0.777344 1.148437 1.847656 2.042969 3.203125 2.683594 z m 0 0"/>
        <path d="m 39.613281 83.496094 h 26 v 4.875 h -26 z m 0 0"/>
    </g>
</svg>
